<?xml version="1.0" standalone="no"?>
<svg xmlns:xlink="http://www.w3.org/1999/xlink" id="wave" style="transform:rotate(0deg); transition: 0.3s" viewBox="0 0 1440 150" version="1.1" xmlns="http://www.w3.org/2000/svg"><defs><linearGradient id="sw-gradient-0" x1="0" x2="0" y1="1" y2="0"><stop stop-color="rgba(216.615, 92.519, 52.663, 1)" offset="0%"/><stop stop-color="rgba(255, 191.745, 51.918, 1)" offset="100%"/></linearGradient></defs><path style="transform:translate(0, 0px); opacity:1" fill="url(#sw-gradient-0)" d="M0,45L48,47.5C96,50,192,55,288,47.5C384,40,480,20,576,27.5C672,35,768,70,864,77.5C960,85,1056,65,1152,47.5C1248,30,1344,15,1440,20C1536,25,1632,50,1728,50C1824,50,1920,25,2016,17.5C2112,10,2208,20,2304,22.5C2400,25,2496,20,2592,30C2688,40,2784,65,2880,65C2976,65,3072,40,3168,37.5C3264,35,3360,55,3456,72.5C3552,90,3648,105,3744,97.5C3840,90,3936,60,4032,60C4128,60,4224,90,4320,92.5C4416,95,4512,70,4608,65C4704,60,4800,75,4896,70C4992,65,5088,40,5184,42.5C5280,45,5376,75,5472,95C5568,115,5664,125,5760,112.5C5856,100,5952,65,6048,47.5C6144,30,6240,30,6336,30C6432,30,6528,30,6624,47.5C6720,65,6816,100,6864,117.5L6912,135L6912,150L6864,150C6816,150,6720,150,6624,150C6528,150,6432,150,6336,150C6240,150,6144,150,6048,150C5952,150,5856,150,5760,150C5664,150,5568,150,5472,150C5376,150,5280,150,5184,150C5088,150,4992,150,4896,150C4800,150,4704,150,4608,150C4512,150,4416,150,4320,150C4224,150,4128,150,4032,150C3936,150,3840,150,3744,150C3648,150,3552,150,3456,150C3360,150,3264,150,3168,150C3072,150,2976,150,2880,150C2784,150,2688,150,2592,150C2496,150,2400,150,2304,150C2208,150,2112,150,2016,150C1920,150,1824,150,1728,150C1632,150,1536,150,1440,150C1344,150,1248,150,1152,150C1056,150,960,150,864,150C768,150,672,150,576,150C480,150,384,150,288,150C192,150,96,150,48,150L0,150Z"/><defs><linearGradient id="sw-gradient-1" x1="0" x2="0" y1="1" y2="0"><stop stop-color="rgba(243, 106, 62, 1)" offset="0%"/><stop stop-color="rgba(255, 179, 11, 1)" offset="100%"/></linearGradient></defs><path style="transform:translate(0, 50px); opacity:0.9" fill="url(#sw-gradient-1)" d="M0,105L48,97.5C96,90,192,75,288,62.5C384,50,480,40,576,30C672,20,768,10,864,10C960,10,1056,20,1152,35C1248,50,1344,70,1440,87.5C1536,105,1632,120,1728,122.5C1824,125,1920,115,2016,110C2112,105,2208,105,2304,100C2400,95,2496,85,2592,85C2688,85,2784,95,2880,90C2976,85,3072,65,3168,50C3264,35,3360,25,3456,20C3552,15,3648,15,3744,30C3840,45,3936,75,4032,75C4128,75,4224,45,4320,37.5C4416,30,4512,45,4608,47.5C4704,50,4800,40,4896,50C4992,60,5088,90,5184,100C5280,110,5376,100,5472,92.5C5568,85,5664,80,5760,80C5856,80,5952,85,6048,87.5C6144,90,6240,90,6336,95C6432,100,6528,110,6624,102.5C6720,95,6816,70,6864,57.5L6912,45L6912,150L6864,150C6816,150,6720,150,6624,150C6528,150,6432,150,6336,150C6240,150,6144,150,6048,150C5952,150,5856,150,5760,150C5664,150,5568,150,5472,150C5376,150,5280,150,5184,150C5088,150,4992,150,4896,150C4800,150,4704,150,4608,150C4512,150,4416,150,4320,150C4224,150,4128,150,4032,150C3936,150,3840,150,3744,150C3648,150,3552,150,3456,150C3360,150,3264,150,3168,150C3072,150,2976,150,2880,150C2784,150,2688,150,2592,150C2496,150,2400,150,2304,150C2208,150,2112,150,2016,150C1920,150,1824,150,1728,150C1632,150,1536,150,1440,150C1344,150,1248,150,1152,150C1056,150,960,150,864,150C768,150,672,150,576,150C480,150,384,150,288,150C192,150,96,150,48,150L0,150Z"/><defs><linearGradient id="sw-gradient-2" x1="0" x2="0" y1="1" y2="0"><stop stop-color="rgba(253.043, 116.729, 72.949, 1)" offset="0%"/><stop stop-color="rgba(255, 175.574, 0, 1)" offset="100%"/></linearGradient></defs><path style="transform:translate(0, 100px); opacity:0.8" fill="url(#sw-gradient-2)" d="M0,0L48,2.5C96,5,192,10,288,25C384,40,480,65,576,62.5C672,60,768,30,864,15C960,0,1056,0,1152,10C1248,20,1344,40,1440,45C1536,50,1632,40,1728,50C1824,60,1920,90,2016,105C2112,120,2208,120,2304,107.5C2400,95,2496,70,2592,67.5C2688,65,2784,85,2880,97.5C2976,110,3072,115,3168,120C3264,125,3360,130,3456,120C3552,110,3648,85,3744,85C3840,85,3936,110,4032,115C4128,120,4224,105,4320,102.5C4416,100,4512,110,4608,105C4704,100,4800,80,4896,72.5C4992,65,5088,70,5184,82.5C5280,95,5376,115,5472,115C5568,115,5664,95,5760,85C5856,75,5952,75,6048,67.5C6144,60,6240,45,6336,35C6432,25,6528,20,6624,20C6720,20,6816,25,6864,27.5L6912,30L6912,150L6864,150C6816,150,6720,150,6624,150C6528,150,6432,150,6336,150C6240,150,6144,150,6048,150C5952,150,5856,150,5760,150C5664,150,5568,150,5472,150C5376,150,5280,150,5184,150C5088,150,4992,150,4896,150C4800,150,4704,150,4608,150C4512,150,4416,150,4320,150C4224,150,4128,150,4032,150C3936,150,3840,150,3744,150C3648,150,3552,150,3456,150C3360,150,3264,150,3168,150C3072,150,2976,150,2880,150C2784,150,2688,150,2592,150C2496,150,2400,150,2304,150C2208,150,2112,150,2016,150C1920,150,1824,150,1728,150C1632,150,1536,150,1440,150C1344,150,1248,150,1152,150C1056,150,960,150,864,150C768,150,672,150,576,150C480,150,384,150,288,150C192,150,96,150,48,150L0,150Z"/></svg>