<?xml version="1.0" standalone="no"?>
<svg xmlns:xlink="http://www.w3.org/1999/xlink" id="wave" style="transform:rotate(0deg); transition: 0.3s" viewBox="0 0 1440 100" version="1.1" xmlns="http://www.w3.org/2000/svg"><defs><linearGradient id="sw-gradient-0" x1="0" x2="0" y1="1" y2="0"><stop stop-color="rgba(171.079, 60.642, 25.173, 1)" offset="0%"/><stop stop-color="rgba(223.445, 154.658, 2.602, 1)" offset="100%"/></linearGradient></defs><path style="transform:translate(0, 0px); opacity:1" fill="url(#sw-gradient-0)" d="M0,40L68.6,30L137.1,50L205.7,80L274.3,30L342.9,0L411.4,20L480,50L548.6,30L617.1,50L685.7,20L754.3,90L822.9,60L891.4,60L960,30L1028.6,80L1097.1,90L1165.7,50L1234.3,40L1302.9,80L1371.4,0L1440,30L1508.6,60L1577.1,10L1645.7,70L1645.7,100L1577.1,100L1508.6,100L1440,100L1371.4,100L1302.9,100L1234.3,100L1165.7,100L1097.1,100L1028.6,100L960,100L891.4,100L822.9,100L754.3,100L685.7,100L617.1,100L548.6,100L480,100L411.4,100L342.9,100L274.3,100L205.7,100L137.1,100L68.6,100L0,100Z"/><defs><linearGradient id="sw-gradient-1" x1="0" x2="0" y1="1" y2="0"><stop stop-color="rgba(241.659, 58.746, 0, 1)" offset="0%"/><stop stop-color="rgba(216.615, 149.145, 0, 1)" offset="100%"/></linearGradient></defs><path style="transform:translate(0, 50px); opacity:0.9" fill="url(#sw-gradient-1)" d="M0,80L68.6,40L137.1,40L205.7,20L274.3,90L342.9,50L411.4,70L480,10L548.6,10L617.1,50L685.7,0L754.3,80L822.9,80L891.4,80L960,60L1028.6,20L1097.1,10L1165.7,40L1234.3,50L1302.9,50L1371.4,50L1440,0L1508.6,80L1577.1,50L1645.7,20L1645.7,100L1577.1,100L1508.6,100L1440,100L1371.4,100L1302.9,100L1234.3,100L1165.7,100L1097.1,100L1028.6,100L960,100L891.4,100L822.9,100L754.3,100L685.7,100L617.1,100L548.6,100L480,100L411.4,100L342.9,100L274.3,100L205.7,100L137.1,100L68.6,100L0,100Z"/><defs><linearGradient id="sw-gradient-2" x1="0" x2="0" y1="1" y2="0"><stop stop-color="rgba(255, 78.402, 21.685, 1)" offset="0%"/><stop stop-color="rgba(202.954, 139.739, 0, 1)" offset="100%"/></linearGradient></defs><path style="transform:translate(0, 100px); opacity:0.8" fill="url(#sw-gradient-2)" d="M0,60L68.6,40L137.1,60L205.7,20L274.3,30L342.9,0L411.4,60L480,50L548.6,60L617.1,60L685.7,70L754.3,40L822.9,10L891.4,20L960,20L1028.6,90L1097.1,60L1165.7,20L1234.3,70L1302.9,60L1371.4,90L1440,50L1508.6,80L1577.1,30L1645.7,30L1645.7,100L1577.1,100L1508.6,100L1440,100L1371.4,100L1302.9,100L1234.3,100L1165.7,100L1097.1,100L1028.6,100L960,100L891.4,100L822.9,100L754.3,100L685.7,100L617.1,100L548.6,100L480,100L411.4,100L342.9,100L274.3,100L205.7,100L137.1,100L68.6,100L0,100Z"/></svg>